<svg width="679" height="621" viewBox="0 0 679 621" fill="none" xmlns="http://www.w3.org/2000/svg">
<path d="M340.561 86.8256C367.239 114.024 383.553 138.87 392.92 154.884C434.057 225.213 422.71 284.458 463.736 433.029C470.45 457.364 473.351 483.842 480.07 508.163C543.953 488.199 611.648 466.058 675.531 446.094L579.707 388.357C580.78 385.183 586.817 366.383 576.438 346.977C564.81 325.232 542.245 320.804 539.415 320.298C541.758 315.598 548.958 299.704 543.771 281.099C538.045 260.538 519.536 244.873 496.403 240.807C497.949 237.162 507.626 213.227 495.315 187.45C482.222 160.071 455.081 153.152 451.55 152.326C452.886 150.766 476.672 122.012 465.101 86.8256C455.558 57.7614 429.266 46.8104 425.496 45.3121C420.515 44.1431 391.016 37.7204 364.896 56.287C350.366 66.6176 343.481 79.9878 340.561 86.8256Z" fill="#FC692D"/>
<path d="M479.082 509.972L478.69 508.54C475.317 496.325 472.864 483.375 470.493 470.844C468.121 458.314 465.721 445.492 462.352 433.387C444.959 370.401 436.895 323.008 430.415 284.931C421.621 233.249 415.27 195.91 391.684 155.59C377.622 131.555 360.081 108.751 339.539 87.8323L338.866 87.15L339.243 86.2672C343.022 77.4253 350.395 64.8425 364.056 55.1226C389.274 37.2002 417.699 42.0196 425.816 43.9235L426.016 43.9855C431.103 46.0087 456.97 57.5466 466.451 86.3818C476.877 118.085 459.294 144.534 454.045 151.505C462.242 153.858 484.917 162.37 496.613 186.859C507.678 210.025 501.532 231.593 498.393 239.753C521.225 244.376 539.481 260.309 545.155 280.741C549.678 297.012 545.155 311.327 541.5 319.291C548.361 320.861 567.267 326.831 577.707 346.332C587.184 364.059 583.381 381.39 581.42 387.746L679 446.513L675.96 447.468C644.019 457.445 610.589 468.153 578.227 478.484C545.866 488.814 512.44 499.531 480.499 509.499L479.082 509.972ZM342.259 86.5106C362.672 107.434 380.132 130.19 394.156 154.163C418.014 194.932 424.394 232.49 433.24 284.468C439.711 322.484 447.76 369.799 465.115 432.647C468.489 444.862 470.936 457.808 473.308 470.343C475.574 482.315 477.913 494.679 481.057 506.369C512.55 496.516 545.475 485.98 577.349 475.783C608.675 465.762 641.037 455.403 672.067 445.693L577.979 389.024L578.351 387.937C580.021 383.012 584.731 365.557 575.173 347.692C564.199 327.174 543.251 322.474 539.162 321.744L537.282 321.41L538.136 319.697C541.7 312.539 546.992 298.081 542.392 281.524C536.862 261.635 518.715 246.213 496.155 242.258L494.38 241.948L495.086 240.292C497.715 234.089 505.421 211.977 494.022 188.109C481.615 162.084 456.187 154.912 451.225 153.753L448.934 153.214L450.466 151.429C451.478 150.246 475.164 122.05 463.741 87.3075C454.718 59.8609 430.172 48.7572 425.066 46.7149C417.117 44.8635 389.861 40.3304 365.726 57.4893C353.043 66.4696 345.995 78.0695 342.259 86.5106Z" fill="black"/>
<path d="M393.049 89.0014L268.031 18.3474L269.406 17.0113C282.585 4.27576 300.002 -1.78425 317.146 0.458426C324.83 1.4463 332.19 4.16578 338.67 8.41183C345.15 12.6579 350.582 18.3197 354.556 24.9705L393.049 89.0014ZM272.803 17.7509L384.999 81.1616L352.103 26.4497C348.352 20.1715 343.225 14.8264 337.109 10.8169C330.993 6.80738 324.046 4.23802 316.793 3.30234C301.085 1.25053 285.162 6.50412 272.803 17.7509Z" fill="black"/>
<path d="M572.888 94.093L383.314 83.1468L471.924 43.2938C481.649 38.9215 492.215 36.7392 502.876 36.9014C513.537 37.0637 524.032 39.5664 533.619 44.2327C543.206 48.8989 551.651 55.6147 558.356 63.9049C565.061 72.1952 569.862 81.8574 572.42 92.2081L572.888 94.093ZM395.148 80.9613L569.147 91.0105C566.458 81.297 561.7 72.2798 555.2 64.5771C548.7 56.8744 540.611 50.6683 531.488 46.3844C522.365 42.1005 512.424 39.84 502.345 39.7579C492.267 39.6758 482.29 41.774 473.098 45.9087L395.148 80.9613Z" fill="black"/>
<path d="M509 146.471C508.758 146.472 508.52 146.411 508.308 146.295L389.494 80.923C389.161 80.7395 388.915 80.4313 388.809 80.0662C388.703 79.7011 388.747 79.309 388.931 78.9762C389.114 78.6433 389.422 78.397 389.787 78.2914C390.153 78.1858 390.545 78.2296 390.877 78.4131L509.692 143.785C509.971 143.938 510.191 144.179 510.317 144.471C510.443 144.763 510.469 145.089 510.389 145.397C510.31 145.705 510.131 145.978 509.879 146.172C509.627 146.367 509.318 146.472 509 146.471Z" fill="black"/>
<path d="M410.942 95.6532C414.96 100.745 423.349 113.786 427.405 128.339C431.461 142.893 432.572 154.221 432.754 156.969C433.994 175.965 447.508 258.128 487.528 473.33C467.858 500.367 441.568 521.892 411.181 535.839C398.436 521.658 385.271 505.93 372.053 488.6C356.526 468.239 343.094 448.518 331.494 429.908L161.146 436.589C143.286 435.787 100.469 431.244 70.0071 398.892C52.6669 380.479 46.7119 360.891 36.4051 327.017C26.7425 295.247 24.5905 269.399 19.9476 224.426C18.3682 209.157 17.3232 191.979 17.2135 171.976C17.2135 171.637 17.2135 171.298 17.2135 170.96C17.1091 149.418 25.2403 128.65 39.9433 112.906C54.6463 97.1614 74.8098 87.6304 96.3085 86.2626L198.732 79.6682H198.823C294.204 74.6388 304.134 71.7806 332.21 73.2312C369.019 75.1256 396.141 76.8958 410.942 95.6532Z" fill="white"/>
<path d="M414.998 98.2777C393.311 105.717 361.847 113.38 320.042 112.116C263.737 110.412 221.173 91.6355 198.728 79.6682C238.69 78.5898 270.637 76.5523 292.362 74.8965C325.983 72.3342 345.084 71.3417 371.572 76.8052C401.638 83.0084 405.002 91.7453 414.998 98.2777Z" fill="#FC692D"/>
<path d="M198.843 79.6681C198.843 79.6681 91.924 143.165 25.3784 134.318C31.8481 120.715 41.8347 109.088 54.3052 100.639C66.7757 92.1906 81.2771 87.2272 96.3091 86.2626L198.733 79.6681H198.843Z" fill="#FC692D"/>
<path d="M407.077 540.067L406.266 538.988C393.001 521.333 380.437 502.872 368.289 485.006C356.326 467.423 343.953 449.219 330.946 431.884C305.326 433.84 221.999 439.7 162.062 438.259C153.84 438.058 136.744 437.648 116.44 430.285C91.1838 421.128 74.9554 407.185 65.789 397.103C48.9784 378.618 39.0677 362.003 34.7732 327.222C32.9027 312.115 30.3213 298.454 27.5823 283.991C21.8134 253.452 15.844 221.897 15.5673 171.962C15.5673 171.628 15.5673 171.284 15.5673 170.936C15.468 158.019 18.3054 145.248 23.8652 133.588C30.473 119.723 40.6604 107.872 53.3765 99.2573C66.0925 90.6429 80.8766 85.5772 96.2036 84.5829C127.239 82.5883 158.275 80.589 189.313 78.5849L198.694 77.9837H198.737C236.405 75.9939 260.521 74.362 278.133 73.1739C305.117 71.3463 315.213 70.6592 332.296 71.5419C368.27 73.4029 396.68 74.8821 412.255 94.6034C416.549 100.053 424.919 113.189 429.013 127.876C430.578 133.492 432.93 144.42 434.41 156.735C434.562 158 434.667 158.987 434.744 159.67L434.791 160.114C437.177 181.815 455.462 287.092 489.188 473.02L489.317 473.721L488.897 474.299C477.993 489.277 465.033 502.643 450.399 514.004C436.022 525.15 418.744 534.699 408.318 539.489L407.077 540.067ZM332.515 428.41L333.069 429.145C346.334 446.8 358.898 465.261 371.047 483.126C382.928 500.596 395.206 518.642 408.127 535.901C418.482 531.024 434.724 521.93 448.328 511.375C462.53 500.358 475.127 487.417 485.757 472.925C452.112 287.364 433.846 182.259 431.47 160.491L431.422 160.042C431.351 159.369 431.246 158.391 431.093 157.15C429.662 145.021 427.328 134.289 425.797 128.788C421.846 114.611 413.777 101.937 409.63 96.6886C394.996 78.1412 367.248 76.7097 332.124 74.8964C315.237 74.0232 305.198 74.7008 278.357 76.5188C260.735 77.7117 236.605 79.3436 198.909 81.3334H198.842L189.533 81.9346L96.4136 87.9278C81.6828 88.8837 67.4735 93.7515 55.251 102.029C43.0285 110.307 33.2352 121.695 26.8809 135.019C21.532 146.222 18.7959 158.493 18.8788 170.907C18.8788 171.246 18.8788 171.58 18.8788 171.909C19.1556 221.534 25.082 252.97 30.8366 283.351C33.5803 297.867 36.1761 311.58 38.0561 326.773C42.2552 360.652 51.894 376.842 68.256 394.822C77.1694 404.623 92.9589 418.203 117.571 427.107C137.364 434.265 154.093 434.689 162.134 434.88C222.653 436.312 307.144 430.323 331.599 428.443L332.515 428.41Z" fill="black"/>
<path d="M249.422 207.072L233.265 190.495C230.254 186.735 230.674 181.099 234.22 177.983L240.256 172.649C243.796 169.523 249.083 170.153 251.965 174.047L257.849 181.987C260.44 185.489 265.04 186.405 268.576 184.129L272.035 181.906C275.213 179.863 276.687 175.769 275.623 171.933C274.927 169.414 274.228 166.894 273.529 164.375C272.269 159.823 274.583 155.056 278.777 153.591L285.658 151.176C289.771 149.745 294.247 151.973 295.917 156.296C297.301 159.916 298.686 163.538 300.073 167.161C300.642 168.757 301.682 170.143 303.056 171.134C304.429 172.126 306.072 172.678 307.765 172.716H312.465C316.364 172.716 319.694 169.771 320.439 165.682C321.116 161.932 321.797 158.181 322.481 154.431C323.335 149.726 327.568 146.662 331.991 147.555L338.347 148.833C342.856 149.74 345.848 154.407 345.027 159.212L343.119 169.981C342.403 174.061 344.459 178.155 348.052 179.797L348.181 179.859C351.922 181.567 356.241 180.121 358.359 176.442L364.896 165.081C367.373 160.786 372.755 159.646 376.644 162.609L385.152 169.099C386.884 170.471 388.069 172.418 388.49 174.588C388.912 176.757 388.544 179.006 387.452 180.928C382.757 189.082 379.689 194.665 372.054 200.868C332.864 205.268 288.612 202.672 249.422 207.072Z" fill="black"/>
<path d="M29.4483 228.544L2.24986 211.738C0.688448 209.979 -0.115292 207.674 0.0133743 205.325C0.142041 202.976 1.19271 200.772 2.93698 199.194L9.14014 193.658C10.004 192.884 11.0167 192.293 12.1163 191.923C13.2159 191.553 14.3794 191.41 15.5359 191.504C16.6924 191.599 17.8176 191.928 18.8428 192.471C19.868 193.014 20.7717 193.761 21.4988 194.665L27.8594 202.41C29.1895 204.054 31.082 205.146 33.1708 205.476C35.2596 205.805 37.3964 205.349 39.1682 204.194L42.747 201.856C44.356 200.788 45.5723 199.224 46.2105 197.402C46.8488 195.579 46.8742 193.598 46.2828 191.759L43.8969 184.268C43.1962 182.114 43.3503 179.774 44.3274 177.731C45.3044 175.688 47.0296 174.099 49.1458 173.293L56.3033 170.65C58.384 169.898 60.6738 169.974 62.7001 170.862C64.7264 171.75 66.3344 173.382 67.1922 175.421C68.7509 179.025 70.297 182.609 71.8302 186.172C72.5102 187.78 73.6595 189.146 75.128 190.091C76.5965 191.036 78.3158 191.516 80.0614 191.468L84.9952 191.306C86.9964 191.227 88.9083 190.457 90.4043 189.125C91.9002 187.794 92.8876 185.984 93.1977 184.005C93.834 180.236 94.4606 176.463 95.0778 172.687C95.4292 170.431 96.6609 168.407 98.5027 167.058C100.344 165.709 102.646 165.146 104.903 165.491L111.583 166.555C113.887 166.948 115.942 168.237 117.298 170.141C118.653 172.045 119.2 174.409 118.817 176.714L117.085 187.546C116.759 189.53 117.117 191.566 118.1 193.32C119.084 195.074 120.633 196.441 122.496 197.199L122.634 197.256C124.556 198.022 126.691 198.063 128.641 197.372C130.592 196.681 132.225 195.306 133.237 193.501L139.836 181.92C140.416 180.886 141.204 179.983 142.152 179.271C143.1 178.558 144.186 178.051 145.341 177.782C146.496 177.512 147.694 177.487 148.859 177.706C150.024 177.926 151.131 178.386 152.109 179.057L161.175 185.26C163.011 186.528 164.306 188.438 164.804 190.614C165.302 192.789 164.968 195.072 163.866 197.013C159.166 205.335 155.42 207.072 149.217 215.183C108.181 220.909 70.4846 222.818 29.4483 228.544Z" fill="black"/>
<path d="M125.764 489.916C125.764 489.916 101.252 543.87 117.347 569.064C133.441 594.258 149.942 599.083 149.942 599.083C154.179 592.292 164.548 573.244 159.8 546.675C154.332 516.075 132.411 495.714 125.764 489.916Z" fill="black"/>
<path d="M22.4958 224.689C26.0268 220.361 46.7358 195.844 82.781 193.057C118.826 190.271 143.119 211.366 147.265 215.102C143.892 219.22 120.258 247.072 81.0011 247.373C49.0119 247.602 27.6349 229.336 22.4958 224.689Z" fill="white"/>
<path d="M80.3997 248.805C50.2667 248.805 29.2236 232.705 21.5365 225.748C21.2646 225.502 21.0977 225.16 21.0702 224.794C21.0426 224.429 21.1566 224.066 21.3886 223.782C26.9905 216.915 47.9763 194.312 82.671 191.63C117.366 188.949 141.625 208.102 148.224 214.057C148.497 214.304 148.665 214.646 148.693 215.013C148.72 215.38 148.605 215.743 148.372 216.028C142.592 222.899 135.861 228.912 128.384 233.884C113.749 243.675 97.8115 248.7 81.0105 248.824L80.3997 248.805ZM24.4854 224.541C32.6592 231.669 52.5141 245.942 80.3997 245.942H80.9818C116.397 245.684 139.196 222.269 145.261 215.25C137.626 208.689 114.87 192.017 82.881 194.484C50.8917 196.951 30.9987 216.901 24.4854 224.541Z" fill="black"/>
<path d="M249.899 207.215C253.425 202.891 274.096 178.375 310.089 175.593C346.081 172.811 370.336 193.911 374.478 197.643C371.109 201.761 347.513 229.613 308.319 229.904C276.363 230.133 255.038 211.867 249.899 207.215Z" fill="white"/>
<path d="M307.736 231.34C277.646 231.34 256.622 215.236 248.949 208.274C248.677 208.028 248.51 207.686 248.483 207.321C248.455 206.955 248.569 206.592 248.801 206.308C254.394 199.446 275.341 176.843 309.983 174.166C344.626 171.489 368.856 190.643 375.441 196.593C375.715 196.839 375.884 197.181 375.912 197.548C375.941 197.915 375.827 198.279 375.594 198.564C369.823 205.432 363.104 211.445 355.639 216.419C341.023 226.206 325.1 231.211 308.337 231.35L307.736 231.34ZM251.907 207.067C260.067 214.196 279.898 228.477 307.736 228.477H308.313C343.676 228.229 366.456 204.815 372.492 197.795C364.858 191.234 342.144 174.548 310.208 177.024C278.271 179.501 258.402 199.437 251.898 207.072L251.907 207.067Z" fill="black"/>
<path d="M67.6314 239.347C72.7386 239.347 76.8788 235.207 76.8788 230.1C76.8788 224.992 72.7386 220.852 67.6314 220.852C62.5241 220.852 58.3839 224.992 58.3839 230.1C58.3839 235.207 62.5241 239.347 67.6314 239.347Z" fill="white"/>
<path d="M67.6212 240.778C65.5442 240.777 63.5127 240.17 61.7755 239.032C60.0382 237.893 58.6706 236.273 57.8402 234.369C57.0098 232.465 56.7526 230.361 57.1001 228.313C57.4477 226.265 58.3848 224.363 59.7968 222.84C61.2087 221.317 63.0343 220.238 65.0498 219.737C67.0654 219.235 69.1834 219.332 71.1447 220.016C73.1059 220.7 74.8251 221.941 76.0918 223.587C77.3585 225.233 78.1177 227.213 78.2764 229.284C78.487 232.105 77.5706 234.894 75.7281 237.041C73.8855 239.187 71.2672 240.516 68.4467 240.736C68.17 240.769 67.898 240.778 67.6212 240.778ZM67.6212 222.288C67.4208 222.288 67.2204 222.288 67.0152 222.312C64.9493 222.471 63.031 223.444 61.6825 225.017C60.3339 226.59 59.6655 228.635 59.8243 230.701C59.9832 232.767 60.9562 234.685 62.5294 236.034C64.1025 237.382 66.147 238.05 68.2129 237.892C69.2378 237.815 70.2376 237.537 71.1549 237.073C72.0722 236.61 72.8891 235.97 73.5588 235.19C74.2285 234.411 74.7379 233.507 75.0577 232.53C75.3776 231.553 75.5017 230.523 75.4229 229.498C75.268 227.535 74.3789 225.703 72.9329 224.367C71.4869 223.03 69.5902 222.288 67.6212 222.288Z" fill="black"/>
<path d="M297.668 221.673C302.776 221.673 306.916 217.532 306.916 212.425C306.916 207.318 302.776 203.178 297.668 203.178C292.561 203.178 288.421 207.318 288.421 212.425C288.421 217.532 292.561 221.673 297.668 221.673Z" fill="white"/>
<path d="M297.663 223.104C295.586 223.104 293.554 222.497 291.816 221.36C290.078 220.222 288.71 218.602 287.879 216.698C287.048 214.794 286.79 212.69 287.137 210.642C287.484 208.593 288.42 206.691 289.832 205.167C291.244 203.644 293.069 202.565 295.085 202.063C297.101 201.561 299.219 201.658 301.181 202.341C303.142 203.025 304.862 204.266 306.128 205.912C307.395 207.558 308.155 209.538 308.313 211.609C308.525 214.431 307.609 217.221 305.767 219.368C303.924 221.515 301.305 222.843 298.484 223.061C298.212 223.095 297.935 223.104 297.663 223.104ZM297.663 204.614C297.463 204.614 297.262 204.614 297.062 204.614C295.02 204.693 293.091 205.569 291.689 207.055C290.286 208.541 289.523 210.518 289.562 212.56C289.602 214.603 290.441 216.549 291.899 217.979C293.358 219.41 295.319 220.212 297.362 220.212C299.406 220.212 301.367 219.41 302.826 217.979C304.284 216.549 305.123 214.603 305.163 212.56C305.202 210.518 304.438 208.541 303.036 207.055C301.634 205.569 299.705 204.693 297.663 204.614Z" fill="black"/>
<path d="M484.188 450.903L516.158 573.058L476.844 620.297H286.98V620.135C286.396 615.7 287.443 611.204 289.926 607.483C292.409 603.763 296.159 601.071 300.479 599.908L313.362 596.439L306.949 583.608C298.494 566.702 310.766 546.814 329.686 546.814H389.332L376.825 496.711L484.188 450.903Z" fill="#008055"/>
<path d="M264.562 470.038C259.943 469.553 255.284 469.581 250.672 470.124C247.086 470.627 243.558 471.475 240.136 472.657C243.155 485.188 246.177 497.715 249.202 510.239C252.294 526.405 255.389 542.573 258.488 558.743L275.312 556.658C285.285 555.317 294.432 550.684 300.927 543.331C307.522 535.849 311.419 526.371 311.992 516.414C312.159 513.637 312.422 509.385 311.095 504.313C305.45 482.688 277.67 471.584 264.562 470.038Z" fill="white"/>
<path d="M257.143 560.594L247.566 510.592L238.156 471.574L239.588 471.097C243.112 469.881 246.746 469.008 250.439 468.492C255.192 467.927 259.993 467.896 264.754 468.401C277.255 469.876 306.687 480.865 312.709 503.912C314.088 509.194 313.83 513.565 313.663 516.457V516.528C313.048 526.855 309.007 536.681 302.178 544.452C295.531 551.986 286.069 556.916 275.537 558.333L257.143 560.594ZM242.122 473.75L250.839 509.91L259.834 556.877L275.103 554.969C284.823 553.661 293.551 549.123 299.673 542.19C306.004 534.977 309.751 525.86 310.323 516.28V516.208C310.48 513.527 310.719 509.476 309.474 504.704C303.886 483.308 276.153 473.054 264.357 471.665C259.878 471.2 255.361 471.227 250.887 471.746C247.915 472.176 244.983 472.851 242.122 473.765V473.75Z" fill="black"/>
<path d="M289.179 590.475C288.526 590.477 287.881 590.338 287.286 590.068C286.692 589.797 286.164 589.401 285.737 588.907C285.311 588.413 284.996 587.832 284.815 587.205C284.634 586.578 284.591 585.919 284.689 585.273C286.155 573.018 286.281 560.638 285.066 548.355C283.248 529.851 277.374 504.084 259.685 486.4C242.66 469.375 220.205 467.122 200.393 465.137L198.613 464.956C189.223 464.016 179.767 463.949 170.365 464.756C148.577 466.636 131.39 486.734 130.383 511.518V511.919L121.317 511.57V511.136C122.51 481.824 143.266 458.004 169.582 455.732C179.546 454.876 189.569 454.947 199.519 455.947L201.295 456.124C222.614 458.261 246.783 460.685 266.094 479.982C281.635 495.528 291.322 518.938 294.103 547.692C296.184 569.164 293.755 585.899 293.626 586.605C293.468 587.674 292.933 588.652 292.118 589.361C291.302 590.071 290.26 590.466 289.179 590.475Z" fill="black"/>
<path d="M449.86 585.302C443.755 595.734 439.531 607.158 437.383 619.052L538.58 619.386C537.322 613.959 534.693 608.945 530.945 604.823C523.654 596.878 514.588 595.108 511.692 594.664C520.352 584.166 520.815 569.427 513.285 559.387C513.09 559.13 512.894 558.881 512.694 558.633C504.152 548.083 488.64 546.394 477.722 554.463C466.447 562.755 456.969 573.246 449.86 585.302Z" fill="white"/>
<path d="M540.689 621.061L435.383 620.713L435.737 618.751C437.917 606.664 442.211 595.055 448.42 584.457C455.625 572.2 465.251 561.538 476.711 553.122C488.511 544.399 504.864 546.356 513.973 557.583C514.186 557.847 514.396 558.115 514.603 558.385C522.123 568.406 522.008 582.787 514.603 593.538C520.836 594.938 526.547 598.071 531.075 602.577C535.604 607.083 538.767 612.778 540.198 619.004L540.689 621.061ZM439.401 617.387L536.395 617.706C535.068 613.34 532.786 609.324 529.715 605.949C524.883 600.769 518.443 597.374 511.439 596.315L508.533 595.871L510.404 593.6C518.429 583.861 519.078 569.894 511.95 560.389C511.768 560.151 511.582 559.912 511.396 559.683C503.432 549.853 489.079 548.15 478.715 555.808C467.618 563.956 458.298 574.279 451.321 586.147C445.638 595.825 441.61 606.383 439.401 617.387Z" fill="black"/>
<path d="M159.977 511.155C161.143 501.474 149.151 492.068 133.191 490.145C117.231 488.222 103.347 494.511 102.181 504.191C101.014 513.872 113.007 523.279 128.967 525.201C144.927 527.124 158.811 520.835 159.977 511.155Z" fill="#F8BE5A"/>
<path d="M134.697 526.992C132.726 526.99 130.757 526.871 128.799 526.634C120.826 525.68 113.53 522.874 108.281 518.747C102.818 514.452 100.169 509.232 100.775 504.031C101.381 498.83 105.232 494.392 111.564 491.525C117.653 488.767 125.402 487.774 133.38 488.738C141.358 489.702 148.65 492.498 153.898 496.625C159.362 500.92 162.01 506.14 161.404 511.341C160.798 516.542 156.947 520.98 150.615 523.848C146.039 525.919 140.533 526.992 134.697 526.992ZM127.459 491.243C122.033 491.243 116.961 492.226 112.733 494.135C107.351 496.573 104.111 500.209 103.61 504.375C103.109 508.54 105.39 512.844 110.042 516.49C114.895 520.307 121.68 522.894 129.129 523.795C136.577 524.697 143.797 523.795 149.423 521.238C154.805 518.799 158.045 515.163 158.546 510.998C159.052 506.832 156.766 502.528 152.114 498.883C147.261 495.065 140.476 492.479 133.027 491.577C131.179 491.356 129.32 491.244 127.459 491.243Z" fill="black"/>
<path d="M132.039 488.6C132.039 488.6 59.5098 482.874 36.6058 506.255C13.7018 529.636 14.6562 546.814 14.6562 546.814C24.2424 548.622 50.5343 552.273 79.5508 539.179C112.976 524.101 127.945 496.769 132.039 488.6Z" fill="#80BFFF"/>
<path d="M34.9115 550.102C28.0288 550.109 21.1602 549.479 14.3934 548.222L13.2911 548.012L13.2291 546.895C13.1909 546.165 12.5086 528.815 35.5891 505.253C45.3376 495.299 64.5913 489.234 92.8156 487.23C105.914 486.345 119.057 486.326 132.158 487.173L134.277 487.34L133.322 489.249C126.728 502.404 111.053 526.549 80.1421 540.491C65.9194 546.872 50.5 550.149 34.9115 550.102ZM16.1207 545.626C28.9374 547.878 53.1154 549.534 78.9635 537.877C107.593 524.95 122.825 503.043 129.767 489.888C117.6 489.187 57.6151 486.853 37.6266 507.257C18.7785 526.501 16.407 541.522 16.1207 545.626Z" fill="black"/>
<path d="M132.039 488.829C132.039 488.829 151.765 558.857 181.626 572.256C211.487 585.655 227.277 578.813 227.277 578.813C225.659 569.193 219.981 543.264 197.659 520.57C171.921 494.426 141.105 489.845 132.039 488.829Z" fill="#80BFFF"/>
<path d="M215.391 582.014C207.537 582.014 196.027 580.292 181.035 573.559C168.318 567.833 155.969 551.891 144.322 526.105C138.959 514.122 134.392 501.799 130.651 489.215L130.073 487.168L132.187 487.407C146.812 489.039 174.894 495.394 198.671 519.568C219.743 540.988 226.518 565.734 228.68 578.574L228.866 579.681L227.835 580.125C227.473 580.273 223.293 582.014 215.391 582.014ZM134.015 490.508C137.57 502.165 156.136 559.254 182.209 570.944C206.787 581.971 221.704 578.999 225.631 577.844C223.312 565.037 216.498 541.785 196.614 521.567C174.579 499.169 148.74 492.484 134.015 490.508Z" fill="black"/>
<path d="M322.977 228.74L312.441 270.334C311.637 273.51 311.762 276.85 312.799 279.958C313.837 283.065 315.745 285.81 318.296 287.865L319.097 288.514C322.578 291.318 327.018 292.65 331.467 292.224C335.917 291.797 340.023 289.647 342.908 286.233C345.177 283.55 346.565 280.233 346.884 276.733C347.204 273.233 346.438 269.72 344.693 266.67L322.977 228.74Z" fill="#80BFFF"/>
<path d="M329.796 293.692C325.579 293.704 321.486 292.269 318.201 289.626L317.394 288.977C314.636 286.745 312.574 283.771 311.45 280.405C310.327 277.039 310.189 273.423 311.053 269.981L321.589 228.391C321.658 228.115 321.809 227.866 322.022 227.675C322.234 227.485 322.498 227.363 322.781 227.324C323.063 227.285 323.351 227.331 323.607 227.457C323.863 227.582 324.076 227.781 324.218 228.029L345.934 265.973C347.553 268.793 348.4 271.991 348.391 275.243C348.381 278.495 347.514 281.687 345.878 284.498C344.242 287.308 341.894 289.638 339.07 291.252C336.247 292.866 333.048 293.707 329.796 293.692ZM323.497 232.528L313.83 270.702C313.098 273.611 313.215 276.669 314.165 279.514C315.115 282.359 316.86 284.873 319.193 286.758L319.995 287.407C322.841 289.7 326.399 290.926 330.054 290.875C333.708 290.823 337.23 289.497 340.011 287.126C342.792 284.754 344.657 281.485 345.285 277.885C345.912 274.284 345.262 270.577 343.448 267.404L323.497 232.528Z" fill="black"/>
<path d="M87.1853 247.507L73.5574 282.34C72.5171 284.999 72.2618 287.9 72.8217 290.7C73.3817 293.5 74.7334 296.08 76.7163 298.134L77.3413 298.783C80.0475 301.579 83.739 303.206 87.6284 303.319C91.5178 303.431 95.2971 302.019 98.1601 299.384C100.409 297.312 101.967 294.598 102.623 291.611C103.278 288.624 103 285.507 101.825 282.683L87.1853 247.507Z" fill="#80BFFF"/>
<path d="M88.0728 304.719C85.8781 304.726 83.7045 304.291 81.6819 303.439C79.6593 302.587 77.8292 301.336 76.3011 299.761L75.676 299.117C73.5075 296.862 72.0295 294.034 71.4165 290.967C70.8035 287.899 71.0811 284.72 72.2166 281.805L85.8397 246.972C85.9436 246.706 86.1251 246.476 86.3608 246.314C86.5964 246.151 86.8752 246.063 87.1614 246.061C87.4443 246.061 87.7208 246.145 87.9561 246.302C88.1913 246.459 88.3747 246.682 88.4832 246.944L103.137 282.106C104.176 284.587 104.586 287.286 104.328 289.964C104.071 292.642 103.155 295.214 101.662 297.451C100.169 299.689 98.1455 301.522 95.7719 302.788C93.3983 304.053 90.7484 304.712 88.0585 304.704L88.0728 304.719ZM87.2187 251.329L74.8839 282.85C73.9477 285.255 73.7198 287.877 74.2272 290.407C74.7345 292.938 75.9559 295.269 77.7469 297.127L78.372 297.771C80.5533 300.035 83.457 301.465 86.5811 301.814C89.7051 302.163 92.853 301.41 95.4803 299.684C98.1075 297.958 100.049 295.368 100.969 292.362C101.889 289.356 101.729 286.123 100.517 283.222L87.2187 251.329Z" fill="black"/>
<path d="M117.157 313.542L113.54 336.531C113.265 338.287 113.499 340.084 114.214 341.711C114.93 343.337 116.097 344.724 117.576 345.707L118.054 346.017C120.073 347.358 122.537 347.855 124.919 347.403C127.3 346.951 129.41 345.585 130.799 343.598C131.89 342.038 132.476 340.18 132.476 338.275C132.476 336.371 131.89 334.513 130.799 332.953L117.157 313.542Z" fill="#80BFFF"/>
<path d="M123.135 348.976C121.043 348.98 118.996 348.366 117.252 347.211L116.775 346.9C115.069 345.763 113.724 344.161 112.898 342.284C112.073 340.407 111.802 338.333 112.117 336.307L115.734 313.317C115.778 313.035 115.906 312.773 116.1 312.564C116.294 312.355 116.547 312.209 116.825 312.144C117.103 312.079 117.393 312.099 117.66 312.201C117.927 312.303 118.157 312.483 118.321 312.716L131.939 332.127C133.07 333.734 133.736 335.62 133.865 337.581C133.994 339.541 133.581 341.499 132.67 343.239C131.76 344.98 130.387 346.436 128.704 347.448C127.02 348.46 125.09 348.989 123.126 348.976H123.135ZM118.02 317.264L114.957 336.751C114.729 338.233 114.929 339.749 115.533 341.121C116.138 342.492 117.121 343.663 118.368 344.495L118.845 344.806C120.37 345.814 122.199 346.259 124.017 346.064C125.834 345.868 127.527 345.045 128.803 343.736C130.079 342.427 130.858 340.714 131.006 338.892C131.154 337.069 130.662 335.253 129.615 333.754L118.02 317.264Z" fill="black"/>
<path d="M79.1693 333.969L65.4937 362.957C64.4496 365.171 64.0624 367.638 64.3779 370.065C64.6933 372.492 65.6983 374.778 67.2735 376.652L67.7507 377.238C69.9008 379.793 72.9653 381.406 76.2888 381.73C79.6123 382.055 82.9308 381.066 85.5346 378.975C87.5804 377.334 89.0719 375.103 89.8069 372.585C90.5418 370.067 90.4846 367.383 89.6431 364.899L79.1693 333.969Z" fill="#80BFFF"/>
<path d="M77.5845 383.189C75.5082 383.199 73.4549 382.755 71.5688 381.887C69.6827 381.019 68.0095 379.748 66.6669 378.164L66.1898 377.573C64.4411 375.488 63.325 372.947 62.9733 370.249C62.6216 367.551 63.0489 364.809 64.2048 362.346L77.8851 333.358C78.0067 333.099 78.203 332.883 78.4488 332.737C78.6946 332.59 78.9786 332.521 79.2641 332.538C79.5463 332.554 79.8174 332.653 80.0432 332.823C80.2691 332.993 80.4396 333.225 80.5334 333.492L91.031 364.422C91.9615 367.185 92.0226 370.168 91.2062 372.967C90.3897 375.766 88.7348 378.248 86.4646 380.078C83.9475 382.1 80.8132 383.198 77.5845 383.189ZM78.954 337.782L66.7862 363.549C65.861 365.515 65.5185 367.705 65.7992 369.86C66.08 372.014 66.9723 374.043 68.3704 375.707L68.8476 376.299C70.5527 378.325 72.9126 379.693 75.5191 380.164C78.1256 380.634 80.8147 380.179 83.1212 378.877C85.4278 377.575 87.2066 375.508 88.15 373.033C89.0933 370.558 89.1419 367.831 88.2873 365.324L78.954 337.782Z" fill="black"/>
<path d="M370.765 290.843L364.39 320.904C363.898 323.203 364.078 325.595 364.908 327.795C365.738 329.995 367.183 331.909 369.071 333.311L369.667 333.754C372.238 335.666 375.455 336.495 378.63 336.065C381.804 335.636 384.684 333.981 386.654 331.454C388.202 329.469 389.101 327.056 389.231 324.542C389.361 322.029 388.715 319.536 387.38 317.402L370.765 290.843Z" fill="#80BFFF"/>
<path d="M376.944 337.576C374.024 337.579 371.18 336.642 368.832 334.904L368.236 334.475C366.131 332.911 364.517 330.776 363.587 328.324C362.657 325.871 362.449 323.204 362.987 320.637L369.367 290.552C369.424 290.271 369.563 290.014 369.768 289.814C369.972 289.614 370.231 289.479 370.513 289.428C370.794 289.377 371.085 289.411 371.346 289.526C371.608 289.641 371.83 289.832 371.982 290.075L388.597 316.638C389.897 318.712 390.617 321.097 390.681 323.545C390.745 325.992 390.15 328.411 388.959 330.55C387.769 332.689 386.026 334.469 383.912 335.704C381.799 336.939 379.392 337.584 376.944 337.572V337.576ZM371.433 294.603L365.788 321.219C365.363 323.248 365.526 325.357 366.259 327.296C366.992 329.236 368.264 330.925 369.925 332.165L370.522 332.604C372.548 334.112 375.037 334.864 377.559 334.731C380.082 334.598 382.478 333.588 384.334 331.875C386.19 330.162 387.389 327.854 387.724 325.351C388.059 322.847 387.509 320.306 386.168 318.165L371.433 294.603Z" fill="black"/>
<path d="M308.986 332.356L301.762 366.445C301.21 369.047 301.416 371.754 302.357 374.242C303.297 376.731 304.932 378.897 307.068 380.483L307.741 380.96C310.654 383.126 314.3 384.066 317.897 383.578C321.494 383.09 324.758 381.214 326.99 378.35C328.745 376.103 329.765 373.369 329.913 370.521C330.061 367.674 329.328 364.849 327.815 362.432L308.986 332.356Z" fill="#80BFFF"/>
<path d="M315.987 385.131C312.71 385.14 309.519 384.091 306.887 382.139L306.214 381.638C303.863 379.883 302.062 377.493 301.025 374.749C299.988 372.004 299.757 369.021 300.359 366.149L307.588 332.06C307.645 331.78 307.785 331.523 307.989 331.323C308.193 331.123 308.453 330.988 308.734 330.937C309.016 330.886 309.306 330.92 309.568 331.035C309.83 331.15 310.051 331.341 310.203 331.583L329.032 361.688C330.489 364.009 331.295 366.679 331.367 369.419C331.439 372.158 330.773 374.867 329.44 377.261C328.107 379.656 326.155 381.648 323.788 383.03C321.421 384.412 318.727 385.132 315.987 385.117V385.131ZM309.655 336.121L303.16 366.746C302.671 369.081 302.86 371.508 303.706 373.739C304.551 375.971 306.018 377.913 307.932 379.338L308.605 379.815C310.937 381.549 313.802 382.414 316.704 382.259C319.606 382.105 322.363 380.942 324.499 378.971C326.635 377 328.015 374.345 328.401 371.465C328.787 368.584 328.154 365.659 326.613 363.196L309.655 336.121Z" fill="black"/>
<path d="M171.978 265.472C171.613 265.474 171.262 265.333 170.999 265.081C170.724 264.821 170.562 264.464 170.549 264.085C170.537 263.707 170.675 263.339 170.933 263.062C171.166 262.814 176.73 256.964 186.679 253.619C195.826 250.537 210.537 249.115 228.67 259.822C228.849 259.907 229.01 260.027 229.14 260.177C229.271 260.327 229.369 260.502 229.428 260.691C229.487 260.88 229.506 261.08 229.484 261.277C229.462 261.474 229.399 261.665 229.3 261.837C229.2 262.008 229.066 262.157 228.906 262.274C228.745 262.391 228.562 262.474 228.369 262.516C228.175 262.559 227.974 262.561 227.78 262.522C227.585 262.483 227.401 262.403 227.238 262.289C213.467 254.177 200.178 252.135 187.729 256.277C178.424 259.374 173.085 264.957 173.027 265.014C172.893 265.158 172.731 265.274 172.55 265.353C172.37 265.431 172.175 265.472 171.978 265.472Z" fill="black"/>
<path d="M331.017 431.34C330.637 431.348 330.27 431.205 329.996 430.942C329.721 430.68 329.563 430.319 329.554 429.939C329.546 429.559 329.689 429.192 329.952 428.918C330.214 428.644 330.575 428.485 330.955 428.477L360.568 427.193C360.947 427.177 361.318 427.312 361.598 427.568C361.878 427.825 362.045 428.183 362.061 428.562C362.078 428.942 361.943 429.313 361.686 429.593C361.429 429.873 361.071 430.04 360.692 430.056L331.079 431.344L331.017 431.34Z" fill="black"/>
<path d="M179.756 225.819C178.072 225.82 176.41 225.444 174.891 224.719C173.372 223.994 172.035 222.937 170.977 221.628C169.92 220.318 169.169 218.788 168.78 217.15C168.39 215.512 168.373 213.808 168.728 212.163L197.22 79.8447C197.252 79.654 197.323 79.4717 197.427 79.309C197.532 79.1462 197.668 79.0063 197.828 78.8978C197.988 78.7892 198.168 78.7142 198.358 78.6772C198.548 78.6403 198.744 78.6422 198.933 78.6829C199.122 78.7235 199.301 78.8021 199.458 78.9138C199.616 79.0255 199.75 79.168 199.851 79.3328C199.953 79.4976 200.019 79.6811 200.048 79.8725C200.076 80.0638 200.065 80.2589 200.016 80.4459L171.525 212.764C171.239 214.096 171.28 215.476 171.645 216.788C172.01 218.1 172.687 219.304 173.62 220.297C174.552 221.29 175.711 222.041 176.997 222.488C178.284 222.935 179.659 223.063 181.006 222.861L207.947 218.81C208.135 218.776 208.328 218.781 208.514 218.823C208.701 218.865 208.877 218.944 209.032 219.055C209.188 219.167 209.319 219.308 209.419 219.471C209.519 219.634 209.585 219.815 209.614 220.004C209.643 220.193 209.633 220.386 209.586 220.571C209.539 220.757 209.456 220.931 209.34 221.083C209.225 221.235 209.08 221.363 208.915 221.459C208.749 221.554 208.566 221.616 208.376 221.639L181.416 225.681C180.867 225.769 180.312 225.815 179.756 225.819Z" fill="black"/>
<path d="M264.62 467.396L239.643 471.365C232.616 472.482 227.825 479.084 228.942 486.111L229.674 490.72C230.791 497.747 237.393 502.539 244.42 501.422L269.396 497.453C276.424 496.336 281.215 489.734 280.098 482.707L279.366 478.098C278.249 471.071 271.647 466.279 264.62 467.396Z" fill="white"/>
<path d="M242.389 503.234C238.935 503.22 235.598 501.977 232.976 499.729C230.354 497.48 228.616 494.373 228.074 490.962L227.339 486.352C226.734 482.541 227.668 478.645 229.934 475.521C232.201 472.398 235.615 470.302 239.426 469.694L264.405 465.724C268.218 465.12 272.114 466.054 275.238 468.321C278.361 470.589 280.457 474.004 281.063 477.816L281.793 482.42C282.094 484.308 282.02 486.236 281.575 488.095C281.13 489.954 280.324 491.707 279.201 493.254C278.079 494.801 276.663 496.111 275.033 497.111C273.404 498.11 271.594 498.779 269.707 499.078L244.732 503.048C243.957 503.173 243.174 503.235 242.389 503.234ZM266.691 468.878C266.093 468.879 265.496 468.927 264.906 469.022L239.927 472.992C238.472 473.222 237.078 473.736 235.822 474.506C234.567 475.275 233.476 476.285 232.611 477.477C231.746 478.668 231.125 480.019 230.783 481.451C230.441 482.883 230.384 484.369 230.617 485.823L231.347 490.432C231.815 493.369 233.43 496 235.837 497.746C238.244 499.493 241.246 500.212 244.183 499.746L269.158 495.776C272.095 495.308 274.725 493.693 276.472 491.286C278.219 488.88 278.938 485.878 278.472 482.941L277.737 478.336C277.322 475.703 275.982 473.305 273.957 471.572C271.932 469.838 269.356 468.883 266.691 468.878Z" fill="black"/>
<path d="M270.605 496.82L245.628 500.789C238.601 501.906 233.81 508.508 234.927 515.535L235.691 520.342C236.807 527.369 243.409 532.16 250.437 531.043L275.413 527.074C282.44 525.957 287.231 519.355 286.115 512.328L285.351 507.521C284.234 500.494 277.632 495.703 270.605 496.82Z" fill="white"/>
<path d="M248.405 532.852C244.946 532.844 241.603 531.604 238.975 529.355C236.347 527.107 234.605 523.995 234.062 520.579L233.298 515.774C232.998 513.887 233.072 511.959 233.517 510.1C233.961 508.241 234.768 506.488 235.89 504.941C237.013 503.394 238.429 502.084 240.058 501.084C241.687 500.085 243.497 499.416 245.385 499.116L270.36 495.146C272.247 494.846 274.176 494.92 276.034 495.365C277.893 495.809 279.646 496.616 281.193 497.738C282.74 498.861 284.051 500.277 285.05 501.906C286.049 503.535 286.718 505.345 287.018 507.233L287.786 512.043C288.391 515.855 287.456 519.751 285.189 522.875C282.922 525.999 279.507 528.094 275.695 528.701L250.72 532.671C249.954 532.792 249.18 532.853 248.405 532.852ZM272.655 498.305C272.062 498.304 271.47 498.35 270.885 498.444L245.91 502.414C242.973 502.882 240.342 504.496 238.596 506.903C236.849 509.31 236.13 512.312 236.596 515.249L237.359 520.054C237.59 521.509 238.105 522.904 238.875 524.16C239.645 525.415 240.654 526.507 241.847 527.372C243.039 528.237 244.39 528.858 245.822 529.201C247.254 529.544 248.74 529.601 250.195 529.369L275.17 525.399C276.624 525.168 278.019 524.653 279.274 523.884C280.529 523.114 281.62 522.104 282.485 520.913C283.35 519.721 283.972 518.371 284.315 516.939C284.658 515.507 284.715 514.022 284.484 512.568L283.721 507.758C283.298 505.125 281.953 502.729 279.926 500.997C277.898 499.265 275.321 498.311 272.655 498.305Z" fill="black"/>
<path d="M273.803 525.863L248.827 529.833C241.8 530.95 237.008 537.552 238.125 544.579L238.742 548.457C239.858 555.484 246.46 560.276 253.487 559.159L278.464 555.19C285.491 554.073 290.282 547.471 289.166 540.444L288.549 536.565C287.432 529.538 280.831 524.747 273.803 525.863Z" fill="white"/>
<path d="M251.454 560.971C248 560.957 244.664 559.714 242.042 557.466C239.419 555.217 237.682 552.11 237.139 548.699L236.524 544.819C236.223 542.932 236.297 541.004 236.742 539.145C237.187 537.286 237.993 535.533 239.116 533.986C240.238 532.439 241.655 531.129 243.284 530.129C244.913 529.13 246.723 528.461 248.611 528.162L273.585 524.191C277.398 523.587 281.294 524.521 284.418 526.788C287.541 529.056 289.637 532.471 290.243 536.283L290.859 540.157C291.159 542.045 291.085 543.973 290.641 545.832C290.196 547.691 289.389 549.444 288.267 550.991C287.144 552.538 285.728 553.848 284.099 554.848C282.47 555.847 280.66 556.516 278.772 556.815L253.797 560.785C253.023 560.91 252.239 560.972 251.454 560.971ZM275.871 527.35C275.273 527.351 274.677 527.399 274.086 527.493L249.112 531.463C247.657 531.694 246.263 532.209 245.008 532.979C243.752 533.748 242.661 534.758 241.796 535.949C240.931 537.141 240.309 538.491 239.966 539.923C239.623 541.355 239.566 542.84 239.797 544.294L240.413 548.174C240.881 551.111 242.496 553.741 244.903 555.488C247.309 557.235 250.311 557.954 253.249 557.488L278.223 553.518C281.16 553.05 283.791 551.435 285.538 549.028C287.284 546.621 288.004 543.619 287.538 540.682L286.922 536.808C286.502 534.176 285.16 531.78 283.135 530.048C281.111 528.315 278.536 527.359 275.871 527.35Z" fill="black"/>
<path d="M411.181 483.351C411.181 483.351 443.629 504.346 463.67 489.554C483.711 474.762 483.711 452.335 483.711 452.335L411.181 483.351Z" fill="#F8BE5A"/>
<path d="M446.21 496.234C441.085 496.234 435.474 495.28 429.471 493.371C422.78 491.208 416.372 488.251 410.384 484.563C410.166 484.422 409.99 484.224 409.876 483.991C409.761 483.758 409.712 483.498 409.734 483.239C409.756 482.98 409.849 482.732 410.001 482.521C410.153 482.31 410.36 482.145 410.599 482.043L483.128 451.028C483.346 450.931 483.585 450.89 483.823 450.908C484.061 450.927 484.29 451.005 484.49 451.135C484.69 451.265 484.855 451.443 484.968 451.652C485.082 451.862 485.142 452.096 485.142 452.335C485.142 453.289 484.908 475.659 464.519 490.704C459.528 494.388 453.339 496.234 446.21 496.234ZM414.34 483.546C422.07 487.908 446.859 500.171 462.82 488.394C478.376 476.909 481.497 460.485 482.122 454.563L414.34 483.546Z" fill="black"/>
<path d="M376.825 496.711C383.983 510.549 399.729 513.512 407.364 507.686C413.2 503.239 415.252 492.985 411.181 483.351L376.825 496.711Z" fill="#F8BE5A"/>
<path d="M398.154 511.952C396.486 511.948 394.823 511.757 393.197 511.384C385.743 509.714 379.311 504.609 375.542 497.37C375.449 497.192 375.395 496.996 375.382 496.795C375.37 496.595 375.401 496.394 375.471 496.206C375.542 496.017 375.651 495.846 375.793 495.703C375.934 495.56 376.104 495.448 376.291 495.375L410.647 482.015C410.994 481.88 411.38 481.886 411.723 482.031C412.066 482.176 412.339 482.449 412.484 482.793C416.635 492.622 414.798 503.812 408.218 508.827C405.532 510.879 402.01 511.952 398.154 511.952ZM378.877 497.451C382.308 503.177 387.681 507.214 393.822 508.593C398.656 509.676 403.394 508.913 406.495 506.546C411.797 502.509 413.367 493.519 410.37 485.202L378.877 497.451Z" fill="black"/>
<path d="M272.803 620.297L437.425 619.343L260.397 585.941L272.803 620.297Z" fill="black"/>
<path d="M422.634 557.311C422.533 557.312 422.432 557.301 422.333 557.278L388.931 550.121C388.575 550.027 388.268 549.8 388.075 549.486C387.882 549.172 387.818 548.795 387.896 548.435C387.973 548.075 388.186 547.758 388.491 547.551C388.796 547.345 389.169 547.263 389.533 547.324L422.934 554.482C423.278 554.558 423.583 554.757 423.788 555.043C423.994 555.329 424.088 555.681 424.05 556.031C424.013 556.382 423.848 556.706 423.587 556.942C423.325 557.178 422.986 557.31 422.634 557.311Z" fill="black"/>
</svg>
