<svg width="143" height="37" viewBox="0 0 143 37" fill="none" xmlns="http://www.w3.org/2000/svg">
<path d="M23.8746 16.4119C23.7137 15.8153 23.4769 15.2898 23.1644 14.8352C22.8519 14.3712 22.4684 13.9782 22.0138 13.6563C21.5593 13.3343 21.0385 13.0928 20.4513 12.9318C19.8642 12.7614 19.2203 12.6761 18.5195 12.6761C17.1085 12.6761 15.887 13.017 14.8548 13.6989C13.832 14.3807 13.0413 15.375 12.4826 16.6818C11.9239 17.9792 11.6445 19.5559 11.6445 21.4119C11.6445 23.2775 11.9144 24.8684 12.4542 26.1847C12.994 27.5009 13.7752 28.5047 14.7979 29.196C15.8207 29.8873 17.0612 30.233 18.5195 30.233C19.8074 30.233 20.8964 30.0246 21.7866 29.608C22.6862 29.1818 23.368 28.5805 23.832 27.804C24.296 27.0275 24.528 26.1136 24.528 25.0625L25.8349 25.2188H18.761V20.0909H31.3036V23.9403C31.3036 26.5445 30.7496 28.7746 29.6417 30.6307C28.5432 32.4867 27.0281 33.9119 25.0962 34.9062C23.1739 35.9006 20.9627 36.3977 18.4627 36.3977C15.6881 36.3977 13.2496 35.7964 11.1474 34.5938C9.0451 33.3911 7.40684 31.6771 6.2326 29.4517C5.05835 27.2169 4.47123 24.5653 4.47123 21.4972C4.47123 19.1108 4.82635 16.9943 5.53657 15.1477C6.2468 13.2917 7.23638 11.7197 8.50532 10.4318C9.78373 9.14394 11.261 8.16856 12.9371 7.50568C14.6227 6.8428 16.4362 6.51136 18.3775 6.51136C20.0631 6.51136 21.6303 6.75284 23.0792 7.2358C24.5375 7.71875 25.8254 8.40057 26.9428 9.28125C28.0697 10.1619 28.9835 11.2083 29.6843 12.4205C30.3851 13.6326 30.8207 14.9631 30.9911 16.4119H23.8746Z" fill="#FFC700"/>
<path d="M45.6325 36.4119C43.3408 36.4119 41.3711 35.9432 39.7234 35.0057C38.0851 34.0587 36.8209 32.7424 35.9307 31.0568C35.0501 29.3617 34.6097 27.3968 34.6097 25.1619C34.6097 22.9176 35.0501 20.9527 35.9307 19.267C36.8209 17.572 38.0851 16.2557 39.7234 15.3182C41.3711 14.3712 43.3408 13.8977 45.6325 13.8977C47.9241 13.8977 49.8891 14.3712 51.5273 15.3182C53.1751 16.2557 54.4393 17.572 55.32 19.267C56.2101 20.9527 56.6552 22.9176 56.6552 25.1619C56.6552 27.3968 56.2101 29.3617 55.32 31.0568C54.4393 32.7424 53.1751 34.0587 51.5273 35.0057C49.8891 35.9432 47.9241 36.4119 45.6325 36.4119ZM45.6751 31.1705C46.5084 31.1705 47.2139 30.9148 47.7915 30.4034C48.3692 29.892 48.8095 29.1818 49.1126 28.2727C49.4251 27.3636 49.5813 26.3125 49.5813 25.1193C49.5813 23.9072 49.4251 22.8466 49.1126 21.9375C48.8095 21.0284 48.3692 20.3182 47.7915 19.8068C47.2139 19.2955 46.5084 19.0398 45.6751 19.0398C44.8133 19.0398 44.0842 19.2955 43.4876 19.8068C42.9004 20.3182 42.4506 21.0284 42.1381 21.9375C41.8351 22.8466 41.6836 23.9072 41.6836 25.1193C41.6836 26.3125 41.8351 27.3636 42.1381 28.2727C42.4506 29.1818 42.9004 29.892 43.4876 30.4034C44.0842 30.9148 44.8133 31.1705 45.6751 31.1705Z" fill="#FFC700"/>
<path d="M67.1594 6.90909V36H60.2134V6.90909H67.1594Z" fill="#FFC700"/>
<path d="M79.5494 36.3125C77.9395 36.3125 76.4764 35.8958 75.1602 35.0625C73.8439 34.2292 72.7927 32.9792 72.0067 31.3125C71.2208 29.6458 70.8278 27.5767 70.8278 25.1051C70.8278 22.5388 71.235 20.4271 72.0494 18.7699C72.8637 17.1127 73.9291 15.8864 75.2454 15.0909C76.5711 14.2955 77.9963 13.8977 79.521 13.8977C80.6668 13.8977 81.6469 14.0966 82.4613 14.4943C83.2757 14.8826 83.948 15.3845 84.4783 16C85.0086 16.6155 85.4111 17.2547 85.6857 17.9176H85.8278V6.90909H92.7738V36H85.8988V32.4631H85.6857C85.3922 33.1354 84.9755 33.7652 84.4357 34.3523C83.8959 34.9394 83.2189 35.4129 82.4045 35.7727C81.5995 36.1326 80.6478 36.3125 79.5494 36.3125ZM81.9641 30.9006C82.8069 30.9006 83.5266 30.6638 84.1232 30.1903C84.7198 29.7074 85.1791 29.0303 85.5011 28.1591C85.823 27.2879 85.984 26.2652 85.984 25.0909C85.984 23.8977 85.823 22.8703 85.5011 22.0085C85.1886 21.1468 84.7293 20.4839 84.1232 20.0199C83.5266 19.5559 82.8069 19.3239 81.9641 19.3239C81.1024 19.3239 80.3732 19.5606 79.7766 20.0341C79.18 20.5076 78.7255 21.1752 78.413 22.0369C78.11 22.8987 77.9585 23.9167 77.9585 25.0909C77.9585 26.2652 78.1147 27.2879 78.4272 28.1591C78.7397 29.0303 79.1895 29.7074 79.7766 30.1903C80.3732 30.6638 81.1024 30.9006 81.9641 30.9006Z" fill="#FFC700"/>
<path d="M107.365 36.4119C105.083 36.4119 103.114 35.9621 101.456 35.0625C99.8086 34.1534 98.5396 32.8608 97.6495 31.1847C96.7688 29.4991 96.3285 27.4962 96.3285 25.1761C96.3285 22.9223 96.7736 20.9527 97.6637 19.267C98.5539 17.572 99.8086 16.2557 101.428 15.3182C103.047 14.3712 104.955 13.8977 107.152 13.8977C108.705 13.8977 110.126 14.1392 111.414 14.6222C112.702 15.1051 113.814 15.8201 114.752 16.767C115.689 17.714 116.418 18.8835 116.939 20.2756C117.46 21.6581 117.721 23.2443 117.721 25.0341V26.767H98.7575V22.733H111.257C111.248 21.9943 111.073 21.3362 110.732 20.7585C110.391 20.1809 109.922 19.7311 109.326 19.4091C108.739 19.0777 108.061 18.9119 107.294 18.9119C106.518 18.9119 105.822 19.0871 105.206 19.4375C104.591 19.7784 104.103 20.2472 103.743 20.8438C103.383 21.4309 103.194 22.0985 103.175 22.8466V26.9517C103.175 27.8419 103.35 28.6231 103.701 29.2955C104.051 29.9583 104.548 30.4744 105.192 30.8438C105.836 31.2131 106.603 31.3977 107.493 31.3977C108.109 31.3977 108.667 31.3125 109.169 31.142C109.671 30.9716 110.102 30.7206 110.462 30.3892C110.822 30.0578 111.092 29.6506 111.272 29.1676L117.649 29.3523C117.384 30.7822 116.802 32.0275 115.902 33.0881C115.012 34.1392 113.843 34.9583 112.394 35.5455C110.945 36.1231 109.269 36.4119 107.365 36.4119Z" fill="#FFC700"/>
<path d="M128.214 23.5568V36H121.268V14.1818H127.873V18.1875H128.115C128.598 16.8523 129.422 15.8059 130.586 15.0483C131.751 14.2813 133.138 13.8977 134.748 13.8977C136.282 13.8977 137.613 14.2434 138.74 14.9347C139.876 15.6165 140.757 16.5729 141.382 17.804C142.016 19.0256 142.329 20.4555 142.319 22.0938V36H135.373V23.4574C135.383 22.2453 135.075 21.2983 134.45 20.6165C133.834 19.9347 132.977 19.5938 131.879 19.5938C131.15 19.5938 130.506 19.7547 129.947 20.0767C129.398 20.3892 128.972 20.839 128.669 21.4261C128.375 22.0133 128.224 22.7235 128.214 23.5568Z" fill="#FFC700"/>
<path d="M15.7377 2.57895C15.7377 3.606 14.8459 4.4386 13.7459 4.4386C12.6459 4.4386 11.7541 3.606 11.7541 2.57895C11.7541 1.55189 12.6459 0.719299 13.7459 0.719299C14.8459 0.719299 15.7377 1.55189 15.7377 2.57895Z" fill="#FFC700"/>
<path d="M4.78279 10.0175C4.78279 11.0446 3.89102 11.8772 2.79098 11.8772C1.69094 11.8772 0.799179 11.0446 0.799179 10.0175C0.799179 8.99049 1.69094 8.1579 2.79098 8.1579C3.89102 8.1579 4.78279 8.99049 4.78279 10.0175Z" fill="#FFC700"/>
<path d="M9.76229 4.4386C9.76229 5.97918 8.42465 7.22807 6.77459 7.22807C5.12452 7.22807 3.78688 5.97918 3.78688 4.4386C3.78688 2.89801 5.12452 1.64912 6.77459 1.64912C8.42465 1.64912 9.76229 2.89801 9.76229 4.4386Z" fill="#FFC700"/>
</svg>
